<svg width="1600" height="1000" viewBox="0 0 1600 1000" fill="none" xmlns="http://www.w3.org/2000/svg">
  <defs>
    <linearGradient id="bg2" x1="0" y1="0" x2="1600" y2="1000" gradientUnits="userSpaceOnUse">
      <stop stop-color="#0B0B10" />
      <stop offset="1" stop-color="#141420" />
    </linearGradient>
    <linearGradient id="accent" x1="300" y1="260" x2="1300" y2="740" gradientUnits="userSpaceOnUse">
      <stop stop-color="#44D7FF" />
      <stop offset="1" stop-color="#D7FF3F" />
    </linearGradient>
  </defs>
  <rect width="1600" height="1000" fill="url(#bg2)" />
  <rect x="240" y="180" width="1120" height="640" rx="36" fill="#11111A" stroke="#2A2A38" stroke-width="2" />
  <rect x="300" y="240" width="320" height="180" rx="20" fill="#1A1A26" />
  <rect x="660" y="240" width="380" height="180" rx="20" fill="#1A1A26" />
  <rect x="1060" y="240" width="240" height="180" rx="20" fill="#1A1A26" />
  <rect x="300" y="460" width="420" height="220" rx="20" fill="#1A1A26" />
  <rect x="760" y="460" width="540" height="220" rx="20" fill="#1A1A26" />
  <path d="M330 360C380 300 440 380 500 330C560 280 600 360 650 320" stroke="url(#accent)" stroke-width="6" stroke-linecap="round" />
  <circle cx="1160" cy="330" r="60" fill="#1E1E2C" />
  <circle cx="1160" cy="330" r="44" stroke="#D7FF3F" stroke-width="10" />
  <circle cx="1160" cy="330" r="44" stroke="#44D7FF" stroke-width="10" stroke-dasharray="60 200" />
  <rect x="330" y="520" width="140" height="120" rx="16" fill="#222233" />
  <rect x="490" y="520" width="200" height="120" rx="16" fill="#222233" />
  <rect x="800" y="520" width="220" height="120" rx="16" fill="#222233" />
  <rect x="1040" y="520" width="220" height="120" rx="16" fill="#222233" />
  <circle cx="380" cy="580" r="30" fill="#44D7FF" opacity="0.8" />
  <circle cx="570" cy="580" r="30" fill="#D7FF3F" opacity="0.8" />
  <path d="M840 620C900 560 960 640 1020 580C1080 520 1120 620 1180 560" stroke="#44D7FF" stroke-width="5" stroke-linecap="round" />
</svg>
